; NON-PLATED HOLES START AT T1
; THROUGH (PLATED) HOLES START AT T100
M48
INCH
T1C0.125984
T100C0.035000
T101C0.038000
T102C0.031497
T103C0.042000
%
T1
X001930Y031378
X034430Y001878
X001930Y001878
X034430Y031378
T100
X011930Y016878
X015930Y016878
X032429Y011378
X011930Y011878
X032429Y004150
X032429Y020378
X032429Y031149
X015930Y013878
X029870Y031149
X015930Y012878
X015930Y015878
X026430Y031878
X015930Y010878
X015930Y017878
X026429Y018878
X032429Y013150
X029870Y013150
X026429Y022878
X011930Y015878
X026430Y009878
X011930Y010878
X011930Y013878
X029870Y004150
X029870Y022150
X015930Y011878
X011930Y017878
X029870Y011378
X032429Y022150
X011930Y012878
X032429Y029378
X026430Y013878
X026429Y000878
X015930Y014878
X026430Y027878
X032429Y002378
X011930Y014878
X029870Y029378
X029870Y020378
X026429Y004878
X029870Y002378
T101
X004930Y004378
X002430Y016878
X013054Y007878
X008430Y026878
X008054Y007878
X002430Y015878
X011054Y007878
X002430Y017878
X005930Y004378
X011430Y026878
X018054Y026878
X009430Y026878
X012430Y026878
X020054Y007878
X014054Y026878
X006430Y026878
X009054Y007878
X014054Y007878
X004430Y026878
X015054Y026878
X020054Y026878
X017054Y007878
X012054Y007878
X016054Y007878
X002430Y019878
X006930Y004378
X002430Y018878
X007930Y004378
X010430Y026878
X007054Y007878
X010054Y007878
X021054Y026878
X021054Y007878
X002430Y014878
X005430Y026878
X019054Y026878
X019054Y007878
X016054Y026878
X018054Y007878
X007430Y026878
X017054Y026878
X003430Y026878
T102
X024914Y021378
X024914Y012378
X023929Y021378
X024914Y003378
X023929Y003378
X023929Y012378
X023929Y030378
X024914Y030378
T103
X010410Y013878
X010410Y015378
X007430Y016878
X010410Y012378
X007430Y013878
X007430Y015378
X010410Y016878
X007430Y012378
T00
M30
